<svg width="26" height="25" viewBox="0 0 26 25" fill="none" xmlns="http://www.w3.org/2000/svg">
<path d="M10.9688 0H15.0312C15.7066 0 16.25 0.522461 16.25 1.17188V9.375H20.7035C21.6074 9.375 22.0594 10.4248 21.4195 11.04L13.6957 18.4717C13.3148 18.8379 12.6902 18.8379 12.3094 18.4717L4.57539 11.04C3.93555 10.4248 4.3875 9.375 5.29141 9.375H9.75V1.17188C9.75 0.522461 10.2934 0 10.9688 0ZM26 18.3594V23.8281C26 24.4775 25.4566 25 24.7812 25H1.21875C0.543359 25 0 24.4775 0 23.8281V18.3594C0 17.71 0.543359 17.1875 1.21875 17.1875H8.66836L11.1566 19.5801C12.1773 20.5615 13.8227 20.5615 14.8434 19.5801L17.3316 17.1875H24.7812C25.4566 17.1875 26 17.71 26 18.3594ZM19.7031 22.6562C19.7031 22.1191 19.2461 21.6797 18.6875 21.6797C18.1289 21.6797 17.6719 22.1191 17.6719 22.6562C17.6719 23.1934 18.1289 23.6328 18.6875 23.6328C19.2461 23.6328 19.7031 23.1934 19.7031 22.6562ZM22.9531 22.6562C22.9531 22.1191 22.4961 21.6797 21.9375 21.6797C21.3789 21.6797 20.9219 22.1191 20.9219 22.6562C20.9219 23.1934 21.3789 23.6328 21.9375 23.6328C22.4961 23.6328 22.9531 23.1934 22.9531 22.6562Z" fill="black"/>
</svg>
