<svg width="26" height="19" viewBox="0 0 26 19" fill="none" xmlns="http://www.w3.org/2000/svg">
<path d="M23.5625 18.875H2.4375C1.09129 18.875 0 17.8257 0 16.5312V2.46875C0 1.17432 1.09129 0.125 2.4375 0.125H23.5625C24.9087 0.125 26 1.17432 26 2.46875V16.5312C26 17.8257 24.9087 18.875 23.5625 18.875ZM5.6875 2.85938C4.11694 2.85938 2.84375 4.08359 2.84375 5.59375C2.84375 7.10391 4.11694 8.32812 5.6875 8.32812C7.25806 8.32812 8.53125 7.10391 8.53125 5.59375C8.53125 4.08359 7.25806 2.85938 5.6875 2.85938ZM3.25 15.75H22.75V10.2812L18.3059 6.00806C18.0679 5.77925 17.6821 5.77925 17.4441 6.00806L10.5625 12.625L7.74338 9.91431C7.50542 9.6855 7.11958 9.6855 6.88157 9.91431L3.25 13.4062V15.75Z" fill="black"/>
</svg>
