<svg width="26" height="25" viewBox="0 0 26 25" fill="none" xmlns="http://www.w3.org/2000/svg">
<path d="M10.3745 0.244143C5.32682 1.19141 1.25924 5.09278 0.263931 9.93164C-1.61498 19.0625 6.95182 25.8691 13.4061 24.9072C15.4983 24.5947 16.5241 22.2412 15.5643 20.4297C14.3913 18.2129 16.0671 15.625 18.6569 15.625H22.7042C24.5221 15.625 25.9948 14.1797 25.9999 12.4365C25.9745 4.74121 18.6924 -1.31347 10.3745 0.244143ZM4.87487 15.625C3.97604 15.625 3.24987 14.9268 3.24987 14.0625C3.24987 13.1982 3.97604 12.5 4.87487 12.5C5.7737 12.5 6.49987 13.1982 6.49987 14.0625C6.49987 14.9268 5.7737 15.625 4.87487 15.625ZM6.49987 9.375C5.60104 9.375 4.87487 8.67676 4.87487 7.8125C4.87487 6.94824 5.60104 6.25 6.49987 6.25C7.3987 6.25 8.12487 6.94824 8.12487 7.8125C8.12487 8.67676 7.3987 9.375 6.49987 9.375ZM12.9999 6.25C12.101 6.25 11.3749 5.55176 11.3749 4.6875C11.3749 3.82324 12.101 3.125 12.9999 3.125C13.8987 3.125 14.6249 3.82324 14.6249 4.6875C14.6249 5.55176 13.8987 6.25 12.9999 6.25ZM19.4999 9.375C18.601 9.375 17.8749 8.67676 17.8749 7.8125C17.8749 6.94824 18.601 6.25 19.4999 6.25C20.3987 6.25 21.1249 6.94824 21.1249 7.8125C21.1249 8.67676 20.3987 9.375 19.4999 9.375Z" fill="black"/>
</svg>
