<svg width="26" height="23" viewBox="0 0 26 23" fill="none" xmlns="http://www.w3.org/2000/svg">
<path d="M25.6431 16.5307C26.119 16.9884 26.119 17.7304 25.6431 18.188L21.5806 22.0935C20.8183 22.8264 19.5 22.3127 19.5 21.2648V19.3125H16.5148C16.4313 19.3125 16.3486 19.296 16.272 19.2639C16.1953 19.2319 16.1263 19.1851 16.0693 19.1264L12.4864 15.4352L15.1947 12.645L17.875 15.4062H19.5V13.4541C19.5 12.4073 20.8174 11.8916 21.5806 12.6254L25.6431 16.5307ZM0.609375 7.59375H4.875L7.55529 10.355L10.2636 7.56484L6.68068 3.87363C6.62366 3.81489 6.55469 3.76805 6.47805 3.73603C6.40141 3.70401 6.31874 3.68749 6.23518 3.6875H0.609375C0.272848 3.6875 0 3.94985 0 4.27343V7.00781C0 7.33139 0.272848 7.59375 0.609375 7.59375ZM19.5 7.59375V9.54609C19.5 10.5939 20.8183 11.1076 21.5806 10.3748L25.6431 6.46928C26.119 6.01162 26.119 5.26963 25.6431 4.81201L21.5806 0.906687C20.8174 0.172898 19.5 0.688572 19.5 1.7353V3.6875H16.5148C16.4313 3.68751 16.3486 3.70403 16.272 3.73605C16.1953 3.76807 16.1263 3.8149 16.0693 3.87363L4.875 15.4062H0.609375C0.272848 15.4062 0 15.6686 0 15.9922V18.7266C0 19.0501 0.272848 19.3125 0.609375 19.3125H6.23518C6.40407 19.3125 6.56541 19.2451 6.68068 19.1264L17.875 7.59375H19.5Z" fill="black"/>
</svg>
